<?xml version="1.0" encoding="UTF-8"?>
<svg width="1400" height="1000" xmlns="http://www.w3.org/2000/svg">
  <defs>
    <style>
      .title { font-family: Arial, sans-serif; font-size: 20px; font-weight: bold; text-anchor: middle; }
      .component-title { font-family: Arial, sans-serif; font-size: 14px; font-weight: bold; text-anchor: middle; }
      .component-text { font-family: Arial, sans-serif; font-size: 10px; text-anchor: middle; }
      .layer-title { font-family: Arial, sans-serif; font-size: 16px; font-weight: bold; }
      .connection { stroke: #333; stroke-width: 2; fill: none; marker-end: url(#arrowhead); }
      .bidirectional { stroke: #333; stroke-width: 2; fill: none; marker-start: url(#arrowhead); marker-end: url(#arrowhead); }
      .data-flow { stroke: #666; stroke-width: 1.5; fill: none; marker-end: url(#data-arrowhead); stroke-dasharray: 5,5; }
      .external { fill: #ffecb3; stroke: #f57c00; stroke-width: 2; }
      .presentation { fill: #e3f2fd; stroke: #1976d2; stroke-width: 2; }
      .api { fill: #fce4ec; stroke: #c2185b; stroke-width: 2; }
      .business { fill: #e8f5e8; stroke: #2e7d32; stroke-width: 2; }
      .data { fill: #f3e5f5; stroke: #7b1fa2; stroke-width: 2; }
      .infrastructure { fill: #fff3e0; stroke: #ef6c00; stroke-width: 2; }
    </style>
    <marker id="arrowhead" markerWidth="10" markerHeight="7" refX="9" refY="3.5" orient="auto">
      <polygon points="0 0, 10 3.5, 0 7" fill="#333" />
    </marker>
    <marker id="data-arrowhead" markerWidth="8" markerHeight="6" refX="7" refY="3" orient="auto">
      <polygon points="0 0, 8 3, 0 6" fill="#666" />
    </marker>
  </defs>
  
  <!-- Title -->
  <text x="700" y="30" class="title">Youth Account Management System - Component Architecture</text>
  
  <!-- External Systems Layer -->
  <g id="external-layer">
    <text x="50" y="80" class="layer-title">External Systems</text>
    
    <!-- Parent User -->
    <rect x="50" y="100" width="120" height="80" class="external" rx="10"/>
    <text x="110" y="125" class="component-title">Parent/Guardian</text>
    <text x="110" y="145" class="component-text">Primary User</text>
    <text x="110" y="160" class="component-text">Fund Management</text>
    <text x="110" y="175" class="component-text">Account Monitoring</text>
    
    <!-- Core Banking -->
    <rect x="1200" y="100" width="150" height="80" class="external" rx="10"/>
    <text x="1275" y="125" class="component-title">Core Banking System</text>
    <text x="1275" y="145" class="component-text">Account Balances</text>
    <text x="1275" y="160" class="component-text">Transaction Processing</text>
    <text x="1275" y="175" class="component-text">Regulatory Compliance</text>
    
    <!-- Payment Service -->
    <rect x="1200" y="200" width="150" height="80" class="external" rx="10"/>
    <text x="1275" y="225" class="component-title">Payment Service</text>
    <text x="1275" y="245" class="component-text">Fund Transfers</text>
    <text x="1275" y="260" class="component-text">Transaction Routing</text>
    <text x="1275" y="275" class="component-text">Settlement</text>
    
    <!-- Auth Service -->
    <rect x="1200" y="300" width="150" height="80" class="external" rx="10"/>
    <text x="1275" y="325" class="component-title">Authentication Service</text>
    <text x="1275" y="345" class="component-text">OAuth 2.0</text>
    <text x="1275" y="360" class="component-text">JWT Tokens</text>
    <text x="1275" y="375" class="component-text">RBAC</text>
  </g>
  
  <!-- Presentation Layer -->
  <g id="presentation-layer">
    <text x="50" y="250" class="layer-title">Presentation Layer</text>
    
    <!-- Web Application -->
    <rect x="200" y="270" width="180" height="100" class="presentation" rx="10"/>
    <text x="290" y="295" class="component-title">Web Application</text>
    <text x="290" y="315" class="component-text">React/Angular SPA</text>
    <text x="290" y="330" class="component-text">Responsive Design</text>
    <text x="290" y="345" class="component-text">Dashboard UI (SCIB-195)</text>
    <text x="290" y="360" class="component-text">Transfer UI (SCIB-194)</text>
    
    <!-- Mobile App -->
    <rect x="400" y="270" width="150" height="100" class="presentation" rx="10"/>
    <text x="475" y="295" class="component-title">Mobile Application</text>
    <text x="475" y="315" class="component-text">iOS/Android</text>
    <text x="475" y="330" class="component-text">Native Experience</text>
    <text x="475" y="345" class="component-text">Push Notifications</text>
    <text x="475" y="360" class="component-text">Biometric Auth</text>
  </g>
  
  <!-- API Gateway Layer -->
  <g id="api-layer">
    <text x="50" y="420" class="layer-title">API Gateway Layer</text>
    
    <!-- API Gateway -->
    <rect x="200" y="440" width="350" height="80" class="api" rx="10"/>
    <text x="375" y="465" class="component-title">API Gateway (Kong/AWS)</text>
    <text x="375" y="485" class="component-text">Request Routing • Rate Limiting • Authentication • Load Balancing</text>
    <text x="375" y="500" class="component-text">OpenAPI Specification (SCIB-30) • Circuit Breakers • Monitoring</text>
  </g>
  
  <!-- Business Services Layer -->
  <g id="business-layer">
    <text x="50" y="570" class="layer-title">Business Services</text>
    
    <!-- Dashboard Service -->
    <rect x="100" y="590" width="150" height="100" class="business" rx="10"/>
    <text x="175" y="615" class="component-title">Dashboard Service</text>
    <text x="175" y="635" class="component-text">SCIB-26</text>
    <text x="175" y="650" class="component-text">Account Aggregation</text>
    <text x="175" y="665" class="component-text">Balance Summary</text>
    <text x="175" y="680" class="component-text">Recent Transactions</text>
    
    <!-- Fund Transfer Service -->
    <rect x="270" y="590" width="150" height="100" class="business" rx="10"/>
    <text x="345" y="615" class="component-title">Fund Transfer Service</text>
    <text x="345" y="635" class="component-text">SCIB-27</text>
    <text x="345" y="650" class="component-text">Transfer Processing</text>
    <text x="345" y="665" class="component-text">Validation Logic</text>
    <text x="345" y="680" class="component-text">Audit Trail</text>
    
    <!-- Spending Limit Service -->
    <rect x="440" y="590" width="150" height="100" class="business" rx="10"/>
    <text x="515" y="615" class="component-title">Spending Limit Service</text>
    <text x="515" y="635" class="component-text">SCIB-28</text>
    <text x="515" y="650" class="component-text">Limit Configuration</text>
    <text x="515" y="665" class="component-text">Usage Tracking</text>
    <text x="515" y="680" class="component-text">Enforcement</text>
    
    <!-- Transaction Service -->
    <rect x="610" y="590" width="150" height="100" class="business" rx="10"/>
    <text x="685" y="615" class="component-title">Transaction Service</text>
    <text x="685" y="635" class="component-text">SCIB-29</text>
    <text x="685" y="650" class="component-text">History Retrieval</text>
    <text x="685" y="665" class="component-text">Filtering & Pagination</text>
    <text x="685" y="680" class="component-text">Analytics</text>
    
    <!-- Notification Service -->
    <rect x="780" y="590" width="150" height="100" class="business" rx="10"/>
    <text x="855" y="615" class="component-title">Notification Service</text>
    <text x="855" y="635" class="component-text">Event Processing</text>
    <text x="855" y="650" class="component-text">Alert Generation</text>
    <text x="855" y="665" class="component-text">Multi-channel</text>
    <text x="855" y="680" class="component-text">Delivery</text>
    
    <!-- Validation Service -->
    <rect x="950" y="590" width="150" height="100" class="business" rx="10"/>
    <text x="1025" y="615" class="component-title">Validation Service</text>
    <text x="1025" y="635" class="component-text">Account Validation</text>
    <text x="1025" y="650" class="component-text">Business Rules</text>
    <text x="1025" y="665" class="component-text">Compliance Checks</text>
    <text x="1025" y="680" class="component-text">Risk Assessment</text>
  </g>
  
  <!-- Data Layer -->
  <g id="data-layer">
    <text x="50" y="750" class="layer-title">Data Layer</text>
    
    <!-- Primary Database -->
    <rect x="200" y="770" width="180" height="80" class="data" rx="10"/>
    <text x="290" y="795" class="component-title">Primary Database</text>
    <text x="290" y="815" class="component-text">PostgreSQL Cluster</text>
    <text x="290" y="830" class="component-text">ACID Compliance</text>
    <text x="290" y="845" class="component-text">AES-256 Encryption</text>
    
    <!-- Read Replica -->
    <rect x="400" y="770" width="150" height="80" class="data" rx="10"/>
    <text x="475" y="795" class="component-title">Read Replica</text>
    <text x="475" y="815" class="component-text">PostgreSQL</text>
    <text x="475" y="830" class="component-text">Read Operations</text>
    <text x="475" y="845" class="component-text">Load Distribution</text>
    
    <!-- Redis Cache -->
    <rect x="570" y="770" width="150" height="80" class="data" rx="10"/>
    <text x="645" y="795" class="component-title">Redis Cache</text>
    <text x="645" y="815" class="component-text">Session Storage</text>
    <text x="645" y="830" class="component-text">Frequent Queries</text>
    <text x="645" y="845" class="component-text">Performance</text>
    
    <!-- Audit Store -->
    <rect x="740" y="770" width="150" height="80" class="data" rx="10"/>
    <text x="815" y="795" class="component-title">Audit Store</text>
    <text x="815" y="815" class="component-text">Immutable Logs</text>
    <text x="815" y="830" class="component-text">Compliance</text>
    <text x="815" y="845" class="component-text">10-year Retention</text>
  </g>
  
  <!-- Infrastructure Layer -->
  <g id="infrastructure-layer">
    <text x="50" y="900" class="layer-title">Infrastructure</text>
    
    <!-- Kubernetes -->
    <rect x="200" y="920" width="150" height="60" class="infrastructure" rx="10"/>
    <text x="275" y="945" class="component-title">Kubernetes</text>
    <text x="275" y="965" class="component-text">Container Orchestration</text>
    
    <!-- Load Balancer -->
    <rect x="370" y="920" width="150" height="60" class="infrastructure" rx="10"/>
    <text x="445" y="945" class="component-title">Load Balancer</text>
    <text x="445" y="965" class="component-text">AWS ALB/NGINX</text>
    
    <!-- Monitoring -->
    <rect x="540" y="920" width="150" height="60" class="infrastructure" rx="10"/>
    <text x="615" y="945" class="component-title">Monitoring</text>
    <text x="615" y="965" class="component-text">Prometheus/Grafana</text>
    
    <!-- Security -->
    <rect x="710" y="920" width="150" height="60" class="infrastructure" rx="10"/>
    <text x="785" y="945" class="component-title">Security</text>
    <text x="785" y="965" class="component-text">WAF/DDoS Protection</text>
  </g>
  
  <!-- Connections -->
  <g id="connections">
    <!-- User to Web App -->
    <line x1="170" y1="140" x2="200" y2="320" class="connection"/>
    
    <!-- Web App to API Gateway -->
    <line x1="290" y1="370" x2="375" y2="440" class="connection"/>
    
    <!-- Mobile App to API Gateway -->
    <line x1="475" y1="370" x2="375" y2="440" class="connection"/>
    
    <!-- API Gateway to Services -->
    <line x1="250" y1="520" x2="175" y2="590" class="connection"/>
    <line x1="300" y1="520" x2="345" y2="590" class="connection"/>
    <line x1="375" y1="520" x2="515" y2="590" class="connection"/>
    <line x1="450" y1="520" x2="685" y2="590" class="connection"/>
    <line x1="500" y1="520" x2="855" y2="590" class="connection"/>
    
    <!-- Services to Data Layer -->
    <line x1="175" y1="690" x2="290" y2="770" class="data-flow"/>
    <line x1="345" y1="690" x2="290" y2="770" class="data-flow"/>
    <line x1="515" y1="690" x2="475" y2="770" class="data-flow"/>
    <line x1="685" y1="690" x2="475" y2="770" class="data-flow"/>
    <line x1="855" y1="690" x2="645" y2="770" class="data-flow"/>
    
    <!-- Services to External Systems -->
    <line x1="345" y1="590" x2="1200" y2="240" class="connection"/>
    <line x1="1025" y1="590" x2="1200" y2="140" class="connection"/>
    <line x1="375" y1="440" x2="1200" y2="340" class="connection"/>
    
    <!-- Audit Connections -->
    <line x1="345" y1="690" x2="815" y2="770" class="data-flow"/>
    <line x1="1025" y1="690" x2="815" y2="770" class="data-flow"/>
  </g>
  
  <!-- Performance Annotations -->
  <g id="annotations">
    <rect x="50" y="400" width="120" height="40" fill="#fff" stroke="#ccc" stroke-width="1" rx="5"/>
    <text x="110" y="415" class="component-text">Response Time:</text>
    <text x="110" y="430" class="component-text">&lt; 200ms (95%)</text>
    
    <rect x="1150" y="400" width="120" height="40" fill="#fff" stroke="#ccc" stroke-width="1" rx="5"/>
    <text x="1210" y="415" class="component-text">Throughput:</text>
    <text x="1210" y="430" class="component-text">500 TPS</text>
  </g>
  
  <!-- Legend -->
  <g id="legend">
    <rect x="50" y="50" width="600" height="40" fill="#f9f9f9" stroke="#ddd" stroke-width="1" rx="5"/>
    <text x="60" y="70" class="component-text" font-weight="bold">Architecture Layers: External Systems | Presentation | API Gateway | Business Services | Data | Infrastructure</text>
  </g>
</svg>