<?xml version="1.0" encoding="UTF-8"?>
<svg width="1200" height="800" xmlns="http://www.w3.org/2000/svg">
  <defs>
    <style>
      .title { font-family: Arial, sans-serif; font-size: 18px; font-weight: bold; text-anchor: middle; }
      .actor { font-family: Arial, sans-serif; font-size: 12px; text-anchor: middle; }
      .message { font-family: Arial, sans-serif; font-size: 10px; }
      .lifeline { stroke: #333; stroke-width: 2; stroke-dasharray: 5,5; }
      .activation { fill: #e1f5fe; stroke: #01579b; stroke-width: 1; }
      .arrow { stroke: #333; stroke-width: 1.5; fill: none; marker-end: url(#arrowhead); }
      .return-arrow { stroke: #666; stroke-width: 1; fill: none; marker-end: url(#return-arrowhead); stroke-dasharray: 3,3; }
      .note { fill: #fff3e0; stroke: #f57c00; stroke-width: 1; }
      .note-text { font-family: Arial, sans-serif; font-size: 9px; }
    </style>
    <marker id="arrowhead" markerWidth="10" markerHeight="7" refX="9" refY="3.5" orient="auto">
      <polygon points="0 0, 10 3.5, 0 7" fill="#333" />
    </marker>
    <marker id="return-arrowhead" markerWidth="10" markerHeight="7" refX="9" refY="3.5" orient="auto">
      <polygon points="0 0, 10 3.5, 0 7" fill="#666" />
    </marker>
  </defs>
  
  <!-- Title -->
  <text x="600" y="25" class="title">Youth Account Management System - Fund Transfer Sequence</text>
  
  <!-- Actors -->
  <g id="actors">
    <!-- Parent -->
    <rect x="50" y="50" width="80" height="40" fill="#bbdefb" stroke="#1976d2" stroke-width="2" rx="5"/>
    <text x="90" y="75" class="actor">Parent/Guardian</text>
    
    <!-- Web App -->
    <rect x="180" y="50" width="80" height="40" fill="#c8e6c9" stroke="#388e3c" stroke-width="2" rx="5"/>
    <text x="220" y="75" class="actor">Web Application</text>
    
    <!-- API Gateway -->
    <rect x="310" y="50" width="80" height="40" fill="#ffcdd2" stroke="#d32f2f" stroke-width="2" rx="5"/>
    <text x="350" y="75" class="actor">API Gateway</text>
    
    <!-- Auth Service -->
    <rect x="440" y="50" width="80" height="40" fill="#f3e5f5" stroke="#7b1fa2" stroke-width="2" rx="5"/>
    <text x="480" y="75" class="actor">Auth Service</text>
    
    <!-- Transfer Service -->
    <rect x="570" y="50" width="80" height="40" fill="#fff3e0" stroke="#f57c00" stroke-width="2" rx="5"/>
    <text x="610" y="75" class="actor">Transfer Service</text>
    
    <!-- Payment Service -->
    <rect x="700" y="50" width="80" height="40" fill="#e8f5e8" stroke="#2e7d32" stroke-width="2" rx="5"/>
    <text x="740" y="75" class="actor">Payment Service</text>
    
    <!-- Database -->
    <rect x="830" y="50" width="80" height="40" fill="#fce4ec" stroke="#c2185b" stroke-width="2" rx="5"/>
    <text x="870" y="75" class="actor">Database</text>
    
    <!-- Core Banking -->
    <rect x="960" y="50" width="80" height="40" fill="#e0f2f1" stroke="#00695c" stroke-width="2" rx="5"/>
    <text x="1000" y="75" class="actor">Core Banking</text>
  </g>
  
  <!-- Lifelines -->
  <g id="lifelines">
    <line x1="90" y1="90" x2="90" y2="750" class="lifeline"/>
    <line x1="220" y1="90" x2="220" y2="750" class="lifeline"/>
    <line x1="350" y1="90" x2="350" y2="750" class="lifeline"/>
    <line x1="480" y1="90" x2="480" y2="750" class="lifeline"/>
    <line x1="610" y1="90" x2="610" y2="750" class="lifeline"/>
    <line x1="740" y1="90" x2="740" y2="750" class="lifeline"/>
    <line x1="870" y1="90" x2="870" y2="750" class="lifeline"/>
    <line x1="1000" y1="90" x2="1000" y2="750" class="lifeline"/>
  </g>
  
  <!-- Sequence Messages -->
  <g id="messages">
    <!-- 1. Initiate Transfer -->
    <line x1="90" y1="120" x2="220" y2="120" class="arrow"/>
    <text x="155" y="115" class="message">1. Initiate Fund Transfer</text>
    
    <!-- 2. Validate Session -->
    <line x1="220" y1="140" x2="350" y2="140" class="arrow"/>
    <text x="285" y="135" class="message">2. POST /fund-transfer</text>
    
    <!-- 3. Authenticate -->
    <line x1="350" y1="160" x2="480" y2="160" class="arrow"/>
    <text x="415" y="155" class="message">3. Validate OAuth Token</text>
    
    <!-- 4. Auth Response -->
    <line x1="480" y1="180" x2="350" y2="180" class="return-arrow"/>
    <text x="415" y="175" class="message">4. Token Valid</text>
    
    <!-- 5. Route to Service -->
    <line x1="350" y1="200" x2="610" y2="200" class="arrow"/>
    <text x="480" y="195" class="message">5. Route to Transfer Service</text>
    
    <!-- Activation boxes -->
    <rect x="605" y="200" width="10" height="280" class="activation"/>
    
    <!-- 6. Validate Accounts -->
    <line x1="610" y1="220" x2="870" y2="220" class="arrow"/>
    <text x="740" y="215" class="message">6. Validate Account Ownership</text>
    
    <!-- 7. Account Validation Response -->
    <line x1="870" y1="240" x2="610" y2="240" class="return-arrow"/>
    <text x="740" y="235" class="message">7. Validation Success</text>
    
    <!-- 8. Check Balance -->
    <line x1="610" y1="260" x2="1000" y2="260" class="arrow"/>
    <text x="805" y="255" class="message">8. Check Source Account Balance</text>
    
    <!-- 9. Balance Response -->
    <line x1="1000" y1="280" x2="610" y2="280" class="return-arrow"/>
    <text x="805" y="275" class="message">9. Balance Sufficient</text>
    
    <!-- 10. Process Transfer -->
    <line x1="610" y1="300" x2="740" y2="300" class="arrow"/>
    <text x="675" y="295" class="message">10. Execute Transfer</text>
    
    <!-- Activation box for Payment Service -->
    <rect x="735" y="300" width="10" height="120" class="activation"/>
    
    <!-- 11. Update Core Banking -->
    <line x1="740" y1="320" x2="1000" y2="320" class="arrow"/>
    <text x="870" y="315" class="message">11. Update Account Balances</text>
    
    <!-- 12. Banking Response -->
    <line x1="1000" y1="340" x2="740" y2="340" class="return-arrow"/>
    <text x="870" y="335" class="message">12. Update Successful</text>
    
    <!-- 13. Payment Response -->
    <line x1="740" y1="360" x2="610" y2="360" class="return-arrow"/>
    <text x="675" y="355" class="message">13. Transfer Complete</text>
    
    <!-- 14. Record Transaction -->
    <line x1="610" y1="380" x2="870" y2="380" class="arrow"/>
    <text x="740" y="375" class="message">14. Record Transaction Log</text>
    
    <!-- 15. Log Response -->
    <line x1="870" y1="400" x2="610" y2="400" class="return-arrow"/>
    <text x="740" y="395" class="message">15. Log Recorded</text>
    
    <!-- 16. Generate Response -->
    <line x1="610" y1="420" x2="350" y2="420" class="return-arrow"/>
    <text x="480" y="415" class="message">16. Transfer Success Response</text>
    
    <!-- 17. API Response -->
    <line x1="350" y1="440" x2="220" y2="440" class="return-arrow"/>
    <text x="285" y="435" class="message">17. HTTP 201 Created</text>
    
    <!-- 18. UI Update -->
    <line x1="220" y1="460" x2="90" y2="460" class="return-arrow"/>
    <text x="155" y="455" class="message">18. Transfer Confirmation</text>
  </g>
  
  <!-- Notes -->
  <g id="notes">
    <!-- Security Note -->
    <rect x="50" y="500" width="200" height="60" class="note" rx="5"/>
    <text x="60" y="520" class="note-text">Security Features:</text>
    <text x="60" y="535" class="note-text">• OAuth 2.0 Authentication</text>
    <text x="60" y="550" class="note-text">• Account Ownership Validation</text>
    
    <!-- Business Rules Note -->
    <rect x="270" y="500" width="200" height="60" class="note" rx="5"/>
    <text x="280" y="520" class="note-text">Business Rules:</text>
    <text x="280" y="535" class="note-text">• Balance Validation</text>
    <text x="280" y="550" class="note-text">• Transfer Limits Enforced</text>
    
    <!-- Compliance Note -->
    <rect x="490" y="500" width="200" height="60" class="note" rx="5"/>
    <text x="500" y="520" class="note-text">Compliance:</text>
    <text x="500" y="535" class="note-text">• Audit Trail Maintained</text>
    <text x="500" y="550" class="note-text">• PCI-DSS Compliant</text>
    
    <!-- Performance Note -->
    <rect x="710" y="500" width="200" height="60" class="note" rx="5"/>
    <text x="720" y="520" class="note-text">Performance:</text>
    <text x="720" y="535" class="note-text">• &lt; 5 second completion</text>
    <text x="720" y="550" class="note-text">• Real-time validation</text>
  </g>
  
  <!-- Legend -->
  <g id="legend">
    <rect x="50" y="600" width="300" height="120" fill="#f5f5f5" stroke="#ccc" stroke-width="1" rx="5"/>
    <text x="60" y="620" class="note-text" font-weight="bold">ADR Traceability:</text>
    <text x="60" y="640" class="note-text">SCIB-25: Parent fund allocation (Epic)</text>
    <text x="60" y="655" class="note-text">SCIB-27: Fund transfer API implementation</text>
    <text x="60" y="670" class="note-text">SCIB-30: OpenAPI specification</text>
    <text x="60" y="685" class="note-text">Response Time: &lt; 200ms (95th percentile)</text>
    <text x="60" y="700" class="note-text">Throughput: 500 transfers/second</text>
  </g>
</svg>